<svg width="56" height="56" viewBox="0 0 56 56" fill="none" xmlns="http://www.w3.org/2000/svg">
<rect width="56" height="56" rx="28" fill="#F5F6FB"/>
<path d="M35 24.0001C32.7939 24.0001 31.0001 22.206 31.0001 19.9999C31.0001 17.7941 32.7939 16 35 16C37.2061 16 38.9999 17.7941 38.9999 19.9999C38.9999 22.206 37.2061 24.0001 35 24.0001Z" fill="#082B60"/>
<path d="M35 40C32.7939 40 31.0001 38.2059 31.0001 36.0001C31.0001 33.794 32.7939 31.9999 35 31.9999C37.2061 31.9999 38.9999 33.794 38.9999 36.0001C38.9999 38.2059 37.2061 40 35 40Z" fill="#082B60"/>
<path d="M20.9999 31.9999C18.7941 31.9999 17 30.2061 17 28C17 25.7939 18.7941 24.0001 20.9999 24.0001C23.206 24.0001 25.0001 25.7939 25.0001 28C25.0001 30.2061 23.206 31.9999 20.9999 31.9999Z" fill="#082B60"/>
<path d="M23.3611 27.5201C23.013 27.5201 22.675 27.339 22.491 27.0151C22.218 26.5361 22.386 25.925 22.8651 25.6509L32.1439 20.361C32.6229 20.086 33.2339 20.2541 33.5081 20.7349C33.7811 21.2139 33.613 21.825 33.134 22.0991L23.8549 27.389C23.6989 27.478 23.529 27.5201 23.3611 27.5201Z" fill="#082B60"/>
<path d="M32.639 35.7701C32.4709 35.7701 32.301 35.728 32.145 35.639L22.866 30.3491C22.387 30.0761 22.2191 29.465 22.4921 28.9849C22.764 28.505 23.3759 28.336 23.856 28.611L33.1351 33.9009C33.6141 34.174 33.782 34.785 33.509 35.2651C33.324 35.589 32.986 35.7701 32.639 35.7701Z" fill="#082B60"/>
</svg>
